<svg version="1.1" id="Layer_1" xmlns="http://www.w3.org/2000/svg" xmlns:xlink="http://www.w3.org/1999/xlink" x="0px" y="0px"
	 width="100%" viewBox="0 0 640 640" enable-background="new 0 0 640 640" xml:space="preserve">
<path fill="#000000" opacity="1.000000" stroke="none" 
	d="
M360.000000,641.000000 
	C240.000015,641.000000 120.500046,641.000000 1.000048,641.000000 
	C1.000032,427.666718 1.000032,214.333450 1.000016,1.000134 
	C214.333237,1.000089 427.666473,1.000089 640.999756,1.000045 
	C640.999878,214.333191 640.999878,427.666382 640.999939,640.999756 
	C547.500000,641.000000 454.000000,641.000000 360.000000,641.000000 
M448.279175,382.206207 
	C442.022675,364.493256 435.894562,346.733704 429.485535,329.076111 
	C410.668884,277.233948 387.363159,227.387344 362.395966,178.272964 
	C361.124786,175.772415 360.776825,172.232544 361.350922,169.456116 
	C365.192078,150.880341 369.761871,132.450638 373.375916,113.833885 
	C376.307037,98.735252 366.153473,84.588440 351.181213,81.545662 
	C337.022461,78.668213 326.136871,84.957916 318.311676,100.704971 
	C312.064911,96.139931 305.138336,93.484070 297.347748,94.380043 
	C276.818604,96.741058 265.815155,115.727097 274.042938,134.805695 
	C280.101471,148.854172 286.660522,162.686356 292.786530,176.706680 
	C293.714905,178.831406 293.985809,181.507874 293.732178,183.838959 
	C292.615997,194.096588 291.017242,204.302277 289.934235,214.562775 
	C288.756897,225.717255 287.956451,236.911545 286.934845,248.746719 
	C275.054840,239.288940 262.879395,238.864700 250.317719,244.878937 
	C237.243912,251.138367 232.580750,262.404572 232.999710,276.324310 
	C231.823654,276.179718 231.168900,276.091309 230.512329,276.019653 
	C210.534851,273.839508 195.565598,285.906464 193.749329,305.847382 
	C190.107788,345.828064 190.548508,385.718933 197.034042,425.414978 
	C201.094055,450.265076 207.849976,474.132477 222.934555,494.945190 
	C225.829712,498.939758 228.174042,503.479187 230.003052,508.073578 
	C235.586929,522.099976 235.084595,536.758850 233.776993,551.445190 
	C233.102722,559.018433 234.954422,561.069153 242.529312,561.070618 
	C294.017212,561.080566 345.505127,561.078369 396.993042,561.067200 
	C404.299316,561.065613 406.436981,558.791016 405.428741,551.727417 
	C401.860352,526.727356 405.933594,502.931641 416.876343,480.317017 
	C425.496063,462.503174 434.764587,445.000092 443.218170,427.110077 
	C449.830963,413.115723 452.866730,398.411163 448.279175,382.206207 
z"/>
<path fill="#F7F7F7" opacity="1.000000" stroke="none" 
	d="
M448.415100,382.583801 
	C452.866730,398.411163 449.830963,413.115723 443.218170,427.110077 
	C434.764587,445.000092 425.496063,462.503174 416.876343,480.317017 
	C405.933594,502.931641 401.860352,526.727356 405.428741,551.727417 
	C406.436981,558.791016 404.299316,561.065613 396.993042,561.067200 
	C345.505127,561.078369 294.017212,561.080566 242.529312,561.070618 
	C234.954422,561.069153 233.102722,559.018433 233.776993,551.445190 
	C235.084595,536.758850 235.586929,522.099976 230.003052,508.073578 
	C228.174042,503.479187 225.829712,498.939758 222.934555,494.945190 
	C207.849976,474.132477 201.094055,450.265076 197.034042,425.414978 
	C190.548508,385.718933 190.107788,345.828064 193.749329,305.847382 
	C195.565598,285.906464 210.534851,273.839508 230.512329,276.019653 
	C231.168900,276.091309 231.823654,276.179718 232.999710,276.324310 
	C232.580750,262.404572 237.243912,251.138367 250.317719,244.878937 
	C262.879395,238.864700 275.054840,239.288940 286.934845,248.746719 
	C287.956451,236.911545 288.756897,225.717255 289.934235,214.562775 
	C291.017242,204.302277 292.615997,194.096588 293.732178,183.838959 
	C293.985809,181.507874 293.714905,178.831406 292.786530,176.706680 
	C286.660522,162.686356 280.101471,148.854172 274.042938,134.805695 
	C265.815155,115.727097 276.818604,96.741058 297.347748,94.380043 
	C305.138336,93.484070 312.064911,96.139931 318.311676,100.704971 
	C326.136871,84.957916 337.022461,78.668213 351.181213,81.545662 
	C366.153473,84.588440 376.307037,98.735252 373.375916,113.833885 
	C369.761871,132.450638 365.192078,150.880341 361.350922,169.456116 
	C360.776825,172.232544 361.124786,175.772415 362.395966,178.272964 
	C387.363159,227.387344 410.668884,277.233948 429.485535,329.076111 
	C435.894562,346.733704 442.022675,364.493256 448.415100,382.583801 
M305.869232,425.376251 
	C314.267303,400.720551 330.765900,382.988464 353.279938,370.625275 
	C351.553284,365.822906 349.993744,361.485382 348.583282,357.562408 
	C340.366119,356.001343 332.607208,354.527344 324.645294,353.014771 
	C324.105377,364.459106 319.969788,373.561066 309.613922,379.069244 
	C299.664825,384.361084 289.650482,384.556610 279.617828,379.463867 
	C274.178467,393.332245 265.314117,400.103027 252.913437,400.093170 
	C241.095032,400.083832 232.034851,393.155212 226.697266,379.828827 
	C222.430435,369.175751 218.279892,358.475220 214.196732,347.750427 
	C213.572937,346.112000 212.786102,343.735565 213.498230,342.570679 
	C214.650238,340.686249 217.080765,338.253204 218.791641,338.385040 
	C220.824387,338.541656 223.589111,340.775055 224.440262,342.784637 
	C229.433731,354.574554 233.683960,366.680847 238.735641,378.443909 
	C242.592697,387.425232 250.841187,390.546844 259.299042,387.066864 
	C267.096069,383.858765 270.439331,375.944000 267.068115,367.062927 
	C258.153473,343.578430 249.033478,320.170807 239.831192,296.797211 
	C237.139938,289.961487 230.586411,286.485535 223.336044,287.394012 
	C213.488052,288.627960 206.097733,295.843475 205.232529,305.794403 
	C201.697540,346.450867 202.161926,387.010498 209.228134,427.310059 
	C212.752380,447.409302 217.546646,467.307037 229.817993,484.078918 
	C242.690536,501.672485 247.241394,521.151855 246.075272,542.436707 
	C245.951569,544.694641 245.809799,546.951538 245.670944,549.301025 
	C295.160095,549.301025 344.062286,549.301025 392.729797,549.301025 
	C393.073792,548.909302 393.284058,548.779358 393.278381,548.659607 
	C393.207733,547.166931 393.110901,545.675415 393.010956,544.184265 
	C391.897583,527.570679 392.699036,510.969269 398.729126,495.422546 
	C405.085663,479.034058 413.009277,463.250214 420.334869,447.241852 
	C425.586060,435.766541 431.771545,424.648041 436.117798,412.846497 
	C442.105469,396.588104 439.053528,381.541718 427.285126,368.285126 
	C413.797485,353.091888 400.579376,337.652710 387.518280,322.090363 
	C381.172180,314.529022 373.426178,310.334900 363.702118,308.942352 
	C343.265350,306.015717 322.878052,302.743134 302.474365,299.587097 
	C297.529694,298.822235 296.413696,299.731049 295.834015,304.860718 
	C294.471680,316.915863 300.624023,325.253754 309.563873,331.940033 
	C321.856659,341.134033 336.095276,344.832733 351.204834,345.327240 
	C356.266693,345.492920 358.717438,347.623840 359.702881,352.494324 
	C362.552460,366.577545 369.727844,378.094543 381.069672,386.934204 
	C384.329559,389.474915 385.620605,392.482483 382.990204,395.893738 
	C380.233673,399.468567 376.829376,398.574768 373.866211,395.930573 
	C368.679108,391.301727 363.614227,386.535950 358.287537,381.633698 
	C333.252014,393.260437 315.193390,419.414581 313.013489,447.950745 
	C312.617523,453.134460 310.660370,455.352234 306.699463,455.105560 
	C302.795044,454.862366 300.682709,452.072174 301.480438,447.142670 
	C302.620056,440.100342 304.240143,433.135742 305.869232,425.376251 
M323.027802,129.512970 
	C320.051880,124.316597 317.337280,118.947517 314.042664,113.961746 
	C308.164734,105.066673 297.411713,103.210922 289.213776,109.342545 
	C282.627869,114.268448 281.222076,122.714600 285.336334,131.972275 
	C305.189301,176.644043 325.020630,221.325455 344.850861,266.007355 
	C347.102631,271.081085 346.426361,274.322968 342.657471,275.703430 
	C338.120850,277.365112 335.895569,274.673096 334.275208,270.933167 
	C328.522858,257.656097 322.740326,244.392044 316.944031,231.134064 
	C312.539154,221.058640 308.096039,210.999908 303.669922,200.933762 
	C301.566467,214.084061 300.258118,226.995468 299.261414,239.930893 
	C298.121857,254.719513 295.022949,269.655914 303.043396,283.783020 
	C304.647430,286.608307 305.860352,288.448120 309.312042,288.938599 
	C325.122467,291.185059 340.822571,294.482513 356.696533,295.937225 
	C375.871857,297.694550 390.827362,305.453522 402.081940,321.235077 
	C407.882660,329.368988 415.060089,336.521088 421.615448,344.116821 
	C396.292053,269.293457 361.226959,199.084732 323.027802,129.512970 
M291.629059,285.245697 
	C288.978668,278.427979 286.443207,271.562775 283.648590,264.804718 
	C280.237427,256.555756 273.047272,251.998962 264.924927,252.647095 
	C249.484741,253.879166 241.332291,265.549835 246.049606,280.335571 
	C248.622665,288.400482 252.033127,296.200958 255.131668,304.094910 
	C262.359985,322.510040 269.352570,341.024658 276.975311,359.275635 
	C282.194855,371.772736 294.827545,375.192719 305.870605,367.770447 
	C311.045227,364.292480 312.602142,359.154419 312.963806,353.158417 
	C313.293152,347.697845 309.677277,345.875092 305.992096,343.463043 
	C294.727600,336.090027 286.022736,326.638428 284.523438,312.593872 
	C283.631134,304.235474 283.859985,295.856323 291.416595,289.783600 
	C292.134033,289.207062 291.785858,287.304565 291.629059,285.245697 
M358.705994,98.925766 
	C354.038971,93.509384 348.109802,91.615013 341.229370,93.096848 
	C331.106689,95.276970 324.984650,108.713554 329.860413,117.618881 
	C334.324341,125.771980 338.704651,133.970825 343.135162,142.142258 
	C345.859314,147.166595 348.608643,152.177307 351.818695,158.059036 
	C355.387177,142.274109 359.117676,127.622627 361.784424,112.780014 
	C362.525726,108.654099 360.115112,103.961884 358.705994,98.925766 
z"/>
<path fill="#020202" opacity="1.000000" stroke="none" 
	d="
M305.762146,425.757111 
	C304.240143,433.135742 302.620056,440.100342 301.480438,447.142670 
	C300.682709,452.072174 302.795044,454.862366 306.699463,455.105560 
	C310.660370,455.352234 312.617523,453.134460 313.013489,447.950745 
	C315.193390,419.414581 333.252014,393.260437 358.287537,381.633698 
	C363.614227,386.535950 368.679108,391.301727 373.866211,395.930573 
	C376.829376,398.574768 380.233673,399.468567 382.990204,395.893738 
	C385.620605,392.482483 384.329559,389.474915 381.069672,386.934204 
	C369.727844,378.094543 362.552460,366.577545 359.702881,352.494324 
	C358.717438,347.623840 356.266693,345.492920 351.204834,345.327240 
	C336.095276,344.832733 321.856659,341.134033 309.563873,331.940033 
	C300.624023,325.253754 294.471680,316.915863 295.834015,304.860718 
	C296.413696,299.731049 297.529694,298.822235 302.474365,299.587097 
	C322.878052,302.743134 343.265350,306.015717 363.702118,308.942352 
	C373.426178,310.334900 381.172180,314.529022 387.518280,322.090363 
	C400.579376,337.652710 413.797485,353.091888 427.285126,368.285126 
	C439.053528,381.541718 442.105469,396.588104 436.117798,412.846497 
	C431.771545,424.648041 425.586060,435.766541 420.334869,447.241852 
	C413.009277,463.250214 405.085663,479.034058 398.729126,495.422546 
	C392.699036,510.969269 391.897583,527.570679 393.010956,544.184265 
	C393.110901,545.675415 393.207733,547.166931 393.278381,548.659607 
	C393.284058,548.779358 393.073792,548.909302 392.729797,549.301025 
	C344.062286,549.301025 295.160095,549.301025 245.670944,549.301025 
	C245.809799,546.951538 245.951569,544.694641 246.075272,542.436707 
	C247.241394,521.151855 242.690536,501.672485 229.817993,484.078918 
	C217.546646,467.307037 212.752380,447.409302 209.228134,427.310059 
	C202.161926,387.010498 201.697540,346.450867 205.232529,305.794403 
	C206.097733,295.843475 213.488052,288.627960 223.336044,287.394012 
	C230.586411,286.485535 237.139938,289.961487 239.831192,296.797211 
	C249.033478,320.170807 258.153473,343.578430 267.068115,367.062927 
	C270.439331,375.944000 267.096069,383.858765 259.299042,387.066864 
	C250.841187,390.546844 242.592697,387.425232 238.735641,378.443909 
	C233.683960,366.680847 229.433731,354.574554 224.440262,342.784637 
	C223.589111,340.775055 220.824387,338.541656 218.791641,338.385040 
	C217.080765,338.253204 214.650238,340.686249 213.498230,342.570679 
	C212.786102,343.735565 213.572937,346.112000 214.196732,347.750427 
	C218.279892,358.475220 222.430435,369.175751 226.697266,379.828827 
	C232.034851,393.155212 241.095032,400.083832 252.913437,400.093170 
	C265.314117,400.103027 274.178467,393.332245 279.617828,379.463867 
	C289.650482,384.556610 299.664825,384.361084 309.613922,379.069244 
	C319.969788,373.561066 324.105377,364.459106 324.645294,353.014771 
	C332.607208,354.527344 340.366119,356.001343 348.583282,357.562408 
	C349.993744,361.485382 351.553284,365.822906 353.279938,370.625275 
	C330.765900,382.988464 314.267303,400.720551 305.762146,425.757111 
z"/>
<path fill="#030303" opacity="1.000000" stroke="none" 
	d="
M323.192566,129.841156 
	C361.226959,199.084732 396.292053,269.293457 421.615448,344.116821 
	C415.060089,336.521088 407.882660,329.368988 402.081940,321.235077 
	C390.827362,305.453522 375.871857,297.694550 356.696533,295.937225 
	C340.822571,294.482513 325.122467,291.185059 309.312042,288.938599 
	C305.860352,288.448120 304.647430,286.608307 303.043396,283.783020 
	C295.022949,269.655914 298.121857,254.719513 299.261414,239.930893 
	C300.258118,226.995468 301.566467,214.084061 303.669922,200.933762 
	C308.096039,210.999908 312.539154,221.058640 316.944031,231.134064 
	C322.740326,244.392044 328.522858,257.656097 334.275208,270.933167 
	C335.895569,274.673096 338.120850,277.365112 342.657471,275.703430 
	C346.426361,274.322968 347.102631,271.081085 344.850861,266.007355 
	C325.020630,221.325455 305.189301,176.644043 285.336334,131.972275 
	C281.222076,122.714600 282.627869,114.268448 289.213776,109.342545 
	C297.411713,103.210922 308.164734,105.066673 314.042664,113.961746 
	C317.337280,118.947517 320.051880,124.316597 323.192566,129.841156 
z"/>
<path fill="#030303" opacity="1.000000" stroke="none" 
	d="
M291.780701,285.631653 
	C291.785858,287.304565 292.134033,289.207062 291.416595,289.783600 
	C283.859985,295.856323 283.631134,304.235474 284.523438,312.593872 
	C286.022736,326.638428 294.727600,336.090027 305.992096,343.463043 
	C309.677277,345.875092 313.293152,347.697845 312.963806,353.158417 
	C312.602142,359.154419 311.045227,364.292480 305.870605,367.770447 
	C294.827545,375.192719 282.194855,371.772736 276.975311,359.275635 
	C269.352570,341.024658 262.359985,322.510040 255.131668,304.094910 
	C252.033127,296.200958 248.622665,288.400482 246.049606,280.335571 
	C241.332291,265.549835 249.484741,253.879166 264.924927,252.647095 
	C273.047272,251.998962 280.237427,256.555756 283.648590,264.804718 
	C286.443207,271.562775 288.978668,278.427979 291.780701,285.631653 
z"/>
<path fill="#040404" opacity="1.000000" stroke="none" 
	d="
M358.928253,99.227615 
	C360.115112,103.961884 362.525726,108.654099 361.784424,112.780014 
	C359.117676,127.622627 355.387177,142.274109 351.818695,158.059036 
	C348.608643,152.177307 345.859314,147.166595 343.135162,142.142258 
	C338.704651,133.970825 334.324341,125.771980 329.860413,117.618881 
	C324.984650,108.713554 331.106689,95.276970 341.229370,93.096848 
	C348.109802,91.615013 354.038971,93.509384 358.928253,99.227615 
z"/>
</svg>