<svg version="1.1" id="Layer_1" xmlns="http://www.w3.org/2000/svg" xmlns:xlink="http://www.w3.org/1999/xlink" x="0px" y="0px"
	 width="100%" viewBox="0 0 500 500" enable-background="new 0 0 500 500" xml:space="preserve">
<path fill="#010101" opacity="1.000000" stroke="none" 
	d="
M285.000000,501.000000 
	C190.000015,501.000000 95.500046,501.000000 1.000051,501.000000 
	C1.000034,334.333405 1.000034,167.666794 1.000017,1.000140 
	C167.666565,1.000093 334.333130,1.000093 500.999756,1.000047 
	C500.999847,167.666519 500.999847,334.333038 500.999939,500.999786 
	C429.166656,501.000000 357.333344,501.000000 285.000000,501.000000 
M163.122833,436.729340 
	C172.065155,425.887634 181.302979,415.273041 189.862427,404.137024 
	C197.622635,394.040894 206.528168,386.162201 218.775360,381.617096 
	C228.633392,377.958649 237.906250,372.624573 247.190536,367.577393 
	C250.089264,366.001587 251.901917,365.966370 254.799133,367.485291 
	C264.746185,372.700134 274.756683,377.870667 285.078125,382.272339 
	C294.810211,386.422668 302.904022,392.238220 309.426422,400.566650 
	C318.587738,412.264648 327.969452,423.793976 337.482513,435.207428 
	C338.649994,436.608154 341.315521,437.636841 343.082214,437.387634 
	C344.527161,437.183716 346.693115,434.825500 346.705322,433.406555 
	C346.724365,431.188782 345.654053,428.597443 344.242004,426.792786 
	C337.007568,417.546539 329.346313,408.632935 322.156067,399.353699 
	C312.660004,387.098816 302.041168,376.672974 286.795044,371.514709 
	C262.437012,363.273560 242.605453,348.224182 226.557129,328.373901 
	C201.766724,297.710480 177.364731,266.733124 152.794266,235.891861 
	C143.813614,224.619202 134.761230,213.402954 125.865204,202.063980 
	C122.199326,197.391403 122.867004,190.631638 126.999672,187.204834 
	C131.484238,183.486237 138.090042,183.553787 141.902863,187.688217 
	C148.532913,194.877502 154.989822,202.227081 161.484985,209.539948 
	C175.797684,225.654480 190.083191,241.793182 204.394775,257.908722 
	C206.792175,260.608307 209.589996,262.575348 212.928757,259.609863 
	C216.174866,256.726654 214.701538,253.941742 212.403030,250.982971 
	C197.775879,232.154083 183.351440,213.167709 168.720840,194.341553 
	C156.113525,178.118866 143.133621,162.181564 130.757904,145.786362 
	C128.072098,142.228226 126.023888,137.295090 125.884850,132.925186 
	C125.693260,126.903297 130.167343,123.209602 136.068161,121.759483 
	C141.980087,120.306641 145.887695,123.592354 149.292465,127.649948 
	C167.384750,149.211182 185.494583,170.758530 203.441452,192.440536 
	C212.612152,203.519882 221.387375,214.925934 230.496277,226.057541 
	C232.578857,228.602600 235.457245,230.346039 238.758026,227.807022 
	C241.806519,225.462067 241.145096,222.680847 239.189514,219.948074 
	C238.610336,219.138733 238.006226,218.345978 237.386795,217.566879 
	C223.375458,199.943695 209.333771,182.344543 195.352814,164.697296 
	C178.513718,143.442413 161.761475,122.118614 144.893585,100.886658 
	C139.808182,94.485558 139.924240,86.563240 145.473450,81.842484 
	C151.975815,76.310860 159.274933,77.240242 165.070099,84.149582 
	C175.045670,96.043068 185.157547,107.822205 195.135956,119.713310 
	C217.703186,146.606293 240.225357,173.537064 262.761475,200.456146 
	C265.219238,203.391891 268.285583,205.589569 271.746185,202.832031 
	C275.252991,200.037628 273.632233,196.593445 271.258575,193.654602 
	C257.954620,177.182602 244.599258,160.751968 231.333054,144.249664 
	C218.983612,128.887756 206.695923,113.475945 194.439514,98.039673 
	C190.133667,92.616676 190.672501,84.583794 197.048889,79.617645 
	C201.845413,75.881958 210.208267,77.036705 214.524506,82.096336 
	C234.200882,105.161530 253.844452,128.254745 273.543701,151.300369 
	C291.960022,172.845123 310.460236,194.318268 328.841125,215.893112 
	C331.046417,218.481567 333.220703,220.802597 336.703522,218.757217 
	C340.469299,216.545700 339.411499,213.260864 337.986420,210.019379 
	C331.920563,196.221939 325.636505,182.511780 319.952881,168.557632 
	C315.158691,156.787201 313.768799,144.534042 318.012512,132.217728 
	C319.777344,127.095650 323.114655,123.110733 328.457275,121.094765 
	C331.634857,128.972565 334.396484,136.634766 337.766510,144.019348 
	C347.448975,165.236237 357.150543,186.450668 367.311615,207.439987 
	C371.918549,216.956299 378.244019,225.651688 382.706451,235.224518 
	C391.149414,253.336502 393.776642,272.783997 394.117279,292.625275 
	C394.254944,300.647217 395.205200,308.760986 400.182251,315.315460 
	C410.667023,329.123383 421.604614,342.588196 432.405701,356.154572 
	C434.582916,358.889160 437.432312,358.779388 439.915649,356.832977 
	C443.015289,354.403473 441.914215,351.453705 439.905518,348.938934 
	C433.275238,340.638367 426.554321,332.409729 419.824341,324.189392 
	C413.429871,316.378815 406.186890,309.031281 405.285736,298.187317 
	C404.765167,291.923035 404.374664,285.644897 404.072815,279.365936 
	C402.981018,256.655792 396.951996,235.419937 384.655029,216.225449 
	C382.138245,212.296982 382.267120,209.892075 385.045044,206.248962 
	C392.832672,196.035889 390.206635,181.734497 379.146454,175.099838 
	C374.952972,172.584290 369.725647,171.792191 364.650055,170.108566 
	C365.466461,168.840332 366.545197,166.848328 367.919922,165.087448 
	C372.390472,159.361099 377.020752,153.759476 381.494843,148.035858 
	C388.829559,138.652771 389.619659,128.743393 383.657837,119.553459 
	C379.161316,112.622238 372.327759,109.244537 364.030884,107.825394 
	C365.541168,105.563354 366.874298,103.707909 368.062225,101.763756 
	C374.312378,91.534912 372.575989,79.522171 363.738922,71.581360 
	C354.847504,63.591709 342.740082,62.967201 333.430939,70.625107 
	C328.966095,74.297997 325.306915,78.950218 320.964600,83.491737 
	C320.443939,82.003281 320.084412,80.918869 319.687195,79.848450 
	C313.145813,62.219898 290.809814,59.419231 280.578278,71.760994 
	C275.721832,77.619057 270.580231,83.239807 265.632782,89.023636 
	C260.546814,94.969398 255.540009,100.982880 250.097382,107.442894 
	C248.564804,105.622025 247.723480,104.601753 246.860397,103.600204 
	C238.313751,93.682373 230.030273,83.520599 221.139847,73.920990 
	C212.112671,64.173698 197.572922,63.938381 188.264053,73.292130 
	C184.989532,76.582428 182.936050,81.087914 180.163147,85.283501 
	C177.696762,82.503029 174.994812,79.602409 172.454361,76.566635 
	C163.674576,66.074944 149.732391,64.433258 139.208649,72.713425 
	C129.262024,80.539513 127.276306,94.642937 134.641190,105.305672 
	C135.662430,106.784203 136.790344,108.189072 138.256500,110.145203 
	C136.294220,110.588707 134.891205,110.917107 133.483154,111.222298 
	C118.113823,114.553596 109.558487,132.395874 117.341003,145.234787 
	C119.635902,149.020721 122.586159,152.412704 125.274452,155.956116 
	C129.537613,161.575317 133.833069,167.170013 138.215820,172.907227 
	C137.155945,173.389618 136.866165,173.592407 136.550232,173.648895 
	C136.062103,173.736145 135.556061,173.749512 135.057648,173.749130 
	C126.010826,173.742035 119.091591,177.480484 115.015350,185.660095 
	C110.906631,193.904846 111.999969,201.700546 117.795250,208.853180 
	C119.539215,211.005585 119.517059,212.939362 118.031403,215.522171 
	C114.161865,222.249405 110.248436,229.032043 107.269386,236.174973 
	C99.770828,254.154373 97.275688,273.142273 97.170944,292.505737 
	C97.127686,300.503571 95.148735,307.986694 90.270523,314.358582 
	C85.327499,320.815094 79.903893,326.901917 74.754692,333.202850 
	C70.252098,338.712585 65.549042,344.099854 61.584717,349.979584 
	C60.569538,351.485199 61.196270,355.645813 62.561340,356.763306 
	C63.868210,357.833099 67.250420,356.913940 69.460640,356.133270 
	C70.831459,355.649048 71.755516,353.825165 72.815811,352.549164 
	C78.309723,345.937561 83.912224,339.410583 89.230492,332.660034 
	C95.845421,324.263580 104.064644,316.677887 106.043983,305.568756 
	C107.486748,297.471161 108.300056,289.208069 108.684242,280.985626 
	C109.675682,259.766510 115.242828,240.028732 127.749809,220.017944 
	C128.769241,222.054840 129.285965,223.744156 130.308838,225.031204 
	C142.879547,240.848572 155.537643,256.596466 168.118118,272.406128 
	C168.906906,273.397400 169.696060,274.748627 169.706314,275.939117 
	C169.762070,282.402893 170.286713,288.982208 169.282227,295.304443 
	C168.104996,302.713898 165.548264,309.907013 163.539612,317.180084 
	C162.720230,320.147003 162.621429,322.771027 166.081161,324.128784 
	C169.216217,325.359161 171.632736,324.529114 173.123032,321.487305 
	C174.143112,319.405304 175.330688,317.322632 175.867157,315.101105 
	C177.885773,306.741882 179.668182,298.325623 181.601807,289.649261 
	C201.737915,312.289429 217.614258,338.595215 242.059250,359.087677 
	C234.024246,362.998779 227.166458,367.149658 219.765808,369.763519 
	C205.980789,374.632294 193.974243,381.558990 184.841873,393.317108 
	C175.808624,404.947601 166.122772,416.070374 157.034744,427.660156 
	C155.665665,429.406097 154.969955,432.986938 155.856705,434.784882 
	C156.577072,436.245483 160.137222,436.305450 163.122833,436.729340 
z"/>
<path fill="#F3F3F1" opacity="1.000000" stroke="none" 
	d="
M162.780396,436.857971 
	C160.137222,436.305450 156.577072,436.245483 155.856705,434.784882 
	C154.969955,432.986938 155.665665,429.406097 157.034744,427.660156 
	C166.122772,416.070374 175.808624,404.947601 184.841873,393.317108 
	C193.974243,381.558990 205.980789,374.632294 219.765808,369.763519 
	C227.166458,367.149658 234.024246,362.998779 242.059250,359.087677 
	C217.614258,338.595215 201.737915,312.289429 181.601807,289.649261 
	C179.668182,298.325623 177.885773,306.741882 175.867157,315.101105 
	C175.330688,317.322632 174.143112,319.405304 173.123032,321.487305 
	C171.632736,324.529114 169.216217,325.359161 166.081161,324.128784 
	C162.621429,322.771027 162.720230,320.147003 163.539612,317.180084 
	C165.548264,309.907013 168.104996,302.713898 169.282227,295.304443 
	C170.286713,288.982208 169.762070,282.402893 169.706314,275.939117 
	C169.696060,274.748627 168.906906,273.397400 168.118118,272.406128 
	C155.537643,256.596466 142.879547,240.848572 130.308838,225.031204 
	C129.285965,223.744156 128.769241,222.054840 127.749809,220.017944 
	C115.242828,240.028732 109.675682,259.766510 108.684242,280.985626 
	C108.300056,289.208069 107.486748,297.471161 106.043983,305.568756 
	C104.064644,316.677887 95.845421,324.263580 89.230492,332.660034 
	C83.912224,339.410583 78.309723,345.937561 72.815811,352.549164 
	C71.755516,353.825165 70.831459,355.649048 69.460640,356.133270 
	C67.250420,356.913940 63.868210,357.833099 62.561340,356.763306 
	C61.196270,355.645813 60.569538,351.485199 61.584717,349.979584 
	C65.549042,344.099854 70.252098,338.712585 74.754692,333.202850 
	C79.903893,326.901917 85.327499,320.815094 90.270523,314.358582 
	C95.148735,307.986694 97.127686,300.503571 97.170944,292.505737 
	C97.275688,273.142273 99.770828,254.154373 107.269386,236.174973 
	C110.248436,229.032043 114.161865,222.249405 118.031403,215.522171 
	C119.517059,212.939362 119.539215,211.005585 117.795250,208.853180 
	C111.999969,201.700546 110.906631,193.904846 115.015350,185.660095 
	C119.091591,177.480484 126.010826,173.742035 135.057648,173.749130 
	C135.556061,173.749512 136.062103,173.736145 136.550232,173.648895 
	C136.866165,173.592407 137.155945,173.389618 138.215820,172.907227 
	C133.833069,167.170013 129.537613,161.575317 125.274452,155.956116 
	C122.586159,152.412704 119.635902,149.020721 117.341003,145.234787 
	C109.558487,132.395874 118.113823,114.553596 133.483154,111.222298 
	C134.891205,110.917107 136.294220,110.588707 138.256500,110.145203 
	C136.790344,108.189072 135.662430,106.784203 134.641190,105.305672 
	C127.276306,94.642937 129.262024,80.539513 139.208649,72.713425 
	C149.732391,64.433258 163.674576,66.074944 172.454361,76.566635 
	C174.994812,79.602409 177.696762,82.503029 180.163147,85.283501 
	C182.936050,81.087914 184.989532,76.582428 188.264053,73.292130 
	C197.572922,63.938381 212.112671,64.173698 221.139847,73.920990 
	C230.030273,83.520599 238.313751,93.682373 246.860397,103.600204 
	C247.723480,104.601753 248.564804,105.622025 250.097382,107.442894 
	C255.540009,100.982880 260.546814,94.969398 265.632782,89.023636 
	C270.580231,83.239807 275.721832,77.619057 280.578278,71.760994 
	C290.809814,59.419231 313.145813,62.219898 319.687195,79.848450 
	C320.084412,80.918869 320.443939,82.003281 320.964600,83.491737 
	C325.306915,78.950218 328.966095,74.297997 333.430939,70.625107 
	C342.740082,62.967201 354.847504,63.591709 363.738922,71.581360 
	C372.575989,79.522171 374.312378,91.534912 368.062225,101.763756 
	C366.874298,103.707909 365.541168,105.563354 364.030884,107.825394 
	C372.327759,109.244537 379.161316,112.622238 383.657837,119.553459 
	C389.619659,128.743393 388.829559,138.652771 381.494843,148.035858 
	C377.020752,153.759476 372.390472,159.361099 367.919922,165.087448 
	C366.545197,166.848328 365.466461,168.840332 364.650055,170.108566 
	C369.725647,171.792191 374.952972,172.584290 379.146454,175.099838 
	C390.206635,181.734497 392.832672,196.035889 385.045044,206.248962 
	C382.267120,209.892075 382.138245,212.296982 384.655029,216.225449 
	C396.951996,235.419937 402.981018,256.655792 404.072815,279.365936 
	C404.374664,285.644897 404.765167,291.923035 405.285736,298.187317 
	C406.186890,309.031281 413.429871,316.378815 419.824341,324.189392 
	C426.554321,332.409729 433.275238,340.638367 439.905518,348.938934 
	C441.914215,351.453705 443.015289,354.403473 439.915649,356.832977 
	C437.432312,358.779388 434.582916,358.889160 432.405701,356.154572 
	C421.604614,342.588196 410.667023,329.123383 400.182251,315.315460 
	C395.205200,308.760986 394.254944,300.647217 394.117279,292.625275 
	C393.776642,272.783997 391.149414,253.336502 382.706451,235.224518 
	C378.244019,225.651688 371.918549,216.956299 367.311615,207.439987 
	C357.150543,186.450668 347.448975,165.236237 337.766510,144.019348 
	C334.396484,136.634766 331.634857,128.972565 328.457275,121.094765 
	C323.114655,123.110733 319.777344,127.095650 318.012512,132.217728 
	C313.768799,144.534042 315.158691,156.787201 319.952881,168.557632 
	C325.636505,182.511780 331.920563,196.221939 337.986420,210.019379 
	C339.411499,213.260864 340.469299,216.545700 336.703522,218.757217 
	C333.220703,220.802597 331.046417,218.481567 328.841125,215.893112 
	C310.460236,194.318268 291.960022,172.845123 273.543701,151.300369 
	C253.844452,128.254745 234.200882,105.161530 214.524506,82.096336 
	C210.208267,77.036705 201.845413,75.881958 197.048889,79.617645 
	C190.672501,84.583794 190.133667,92.616676 194.439514,98.039673 
	C206.695923,113.475945 218.983612,128.887756 231.333054,144.249664 
	C244.599258,160.751968 257.954620,177.182602 271.258575,193.654602 
	C273.632233,196.593445 275.252991,200.037628 271.746185,202.832031 
	C268.285583,205.589569 265.219238,203.391891 262.761475,200.456146 
	C240.225357,173.537064 217.703186,146.606293 195.135956,119.713310 
	C185.157547,107.822205 175.045670,96.043068 165.070099,84.149582 
	C159.274933,77.240242 151.975815,76.310860 145.473450,81.842484 
	C139.924240,86.563240 139.808182,94.485558 144.893585,100.886658 
	C161.761475,122.118614 178.513718,143.442413 195.352814,164.697296 
	C209.333771,182.344543 223.375458,199.943695 237.386795,217.566879 
	C238.006226,218.345978 238.610336,219.138733 239.189514,219.948074 
	C241.145096,222.680847 241.806519,225.462067 238.758026,227.807022 
	C235.457245,230.346039 232.578857,228.602600 230.496277,226.057541 
	C221.387375,214.925934 212.612152,203.519882 203.441452,192.440536 
	C185.494583,170.758530 167.384750,149.211182 149.292465,127.649948 
	C145.887695,123.592354 141.980087,120.306641 136.068161,121.759483 
	C130.167343,123.209602 125.693260,126.903297 125.884850,132.925186 
	C126.023888,137.295090 128.072098,142.228226 130.757904,145.786362 
	C143.133621,162.181564 156.113525,178.118866 168.720840,194.341553 
	C183.351440,213.167709 197.775879,232.154083 212.403030,250.982971 
	C214.701538,253.941742 216.174866,256.726654 212.928757,259.609863 
	C209.589996,262.575348 206.792175,260.608307 204.394775,257.908722 
	C190.083191,241.793182 175.797684,225.654480 161.484985,209.539948 
	C154.989822,202.227081 148.532913,194.877502 141.902863,187.688217 
	C138.090042,183.553787 131.484238,183.486237 126.999672,187.204834 
	C122.867004,190.631638 122.199326,197.391403 125.865204,202.063980 
	C134.761230,213.402954 143.813614,224.619202 152.794266,235.891861 
	C177.364731,266.733124 201.766724,297.710480 226.557129,328.373901 
	C242.605453,348.224182 262.437012,363.273560 286.795044,371.514709 
	C302.041168,376.672974 312.660004,387.098816 322.156067,399.353699 
	C329.346313,408.632935 337.007568,417.546539 344.242004,426.792786 
	C345.654053,428.597443 346.724365,431.188782 346.705322,433.406555 
	C346.693115,434.825500 344.527161,437.183716 343.082214,437.387634 
	C341.315521,437.636841 338.649994,436.608154 337.482513,435.207428 
	C327.969452,423.793976 318.587738,412.264648 309.426422,400.566650 
	C302.904022,392.238220 294.810211,386.422668 285.078125,382.272339 
	C274.756683,377.870667 264.746185,372.700134 254.799133,367.485291 
	C251.901917,365.966370 250.089264,366.001587 247.190536,367.577393 
	C237.906250,372.624573 228.633392,377.958649 218.775360,381.617096 
	C206.528168,386.162201 197.622635,394.040894 189.862427,404.137024 
	C181.302979,415.273041 172.065155,425.887634 162.780396,436.857971 
M306.591461,162.189941 
	C306.125214,159.260544 305.476471,156.346756 305.224213,153.399033 
	C304.126709,140.575211 305.196747,128.278748 314.338196,118.073334 
	C318.364990,113.577866 323.275269,110.700752 329.352722,110.413734 
	C335.041992,110.145035 337.209320,114.455353 339.288025,118.724686 
	C339.485718,119.130745 340.026764,119.369637 340.531311,119.788040 
	C346.501892,112.229324 352.604736,104.809364 358.352997,97.124184 
	C362.562927,91.495682 361.423920,83.459915 356.290527,79.285065 
	C350.421051,74.511597 344.076111,74.793930 338.571320,80.141800 
	C337.145538,81.526917 335.819794,83.024979 334.538544,84.547264 
	C324.200256,96.830574 313.852722,109.106316 303.571289,121.437134 
	C296.816559,129.538269 290.166870,137.726929 283.264191,146.127014 
	C289.735199,153.714920 296.006531,161.068665 302.601044,168.801392 
	C304.190643,166.465729 305.382416,164.714615 306.591461,162.189941 
M269.447845,130.082535 
	C271.365662,132.237473 273.283447,134.392395 275.426147,136.800034 
	C286.621429,122.542763 297.556213,108.865456 308.186584,94.955498 
	C312.359344,89.495407 310.853760,81.937859 305.404785,77.592308 
	C300.538330,73.711319 292.468719,74.158089 288.277496,79.015289 
	C278.657013,90.164398 269.389099,101.619148 259.698151,112.705132 
	C257.395538,115.339218 257.986969,116.825607 259.895355,118.955109 
	C262.996735,122.415756 265.934723,126.022804 269.447845,130.082535 
M364.163879,152.660324 
	C367.748932,147.887878 371.639587,143.309052 374.823944,138.282761 
	C377.449402,134.138718 377.133026,129.532898 374.415802,125.295204 
	C371.853119,121.298515 368.407166,119.754745 363.436707,119.610878 
	C356.175598,119.400711 353.879852,125.136421 349.711578,128.890244 
	C345.511932,132.672302 345.526794,136.252884 347.831573,141.036957 
	C351.019287,147.653809 353.506409,154.608154 356.614868,162.203033 
	C359.491058,158.613281 361.634827,155.937668 364.163879,152.660324 
M378.402588,194.210358 
	C378.433655,186.207764 375.121399,182.631424 366.063477,182.365326 
	C369.216797,188.750931 372.082153,194.553452 375.638428,201.755020 
	C376.989471,198.473404 377.705383,196.734528 378.402588,194.210358 
z"/>
<path fill="#050505" opacity="1.000000" stroke="none" 
	d="
M306.582825,162.576721 
	C305.382416,164.714615 304.190643,166.465729 302.601044,168.801392 
	C296.006531,161.068665 289.735199,153.714920 283.264191,146.127014 
	C290.166870,137.726929 296.816559,129.538269 303.571289,121.437134 
	C313.852722,109.106316 324.200256,96.830574 334.538544,84.547264 
	C335.819794,83.024979 337.145538,81.526917 338.571320,80.141800 
	C344.076111,74.793930 350.421051,74.511597 356.290527,79.285065 
	C361.423920,83.459915 362.562927,91.495682 358.352997,97.124184 
	C352.604736,104.809364 346.501892,112.229324 340.531311,119.788040 
	C340.026764,119.369637 339.485718,119.130745 339.288025,118.724686 
	C337.209320,114.455353 335.041992,110.145035 329.352722,110.413734 
	C323.275269,110.700752 318.364990,113.577866 314.338196,118.073334 
	C305.196747,128.278748 304.126709,140.575211 305.224213,153.399033 
	C305.476471,156.346756 306.125214,159.260544 306.582825,162.576721 
z"/>
<path fill="#040404" opacity="1.000000" stroke="none" 
	d="
M269.194763,129.825287 
	C265.934723,126.022804 262.996735,122.415756 259.895355,118.955109 
	C257.986969,116.825607 257.395538,115.339218 259.698151,112.705132 
	C269.389099,101.619148 278.657013,90.164398 288.277496,79.015289 
	C292.468719,74.158089 300.538330,73.711319 305.404785,77.592308 
	C310.853760,81.937859 312.359344,89.495407 308.186584,94.955498 
	C297.556213,108.865456 286.621429,122.542763 275.426147,136.800034 
	C273.283447,134.392395 271.365662,132.237473 269.194763,129.825287 
z"/>
<path fill="#040404" opacity="1.000000" stroke="none" 
	d="
M363.971252,152.961197 
	C361.634827,155.937668 359.491058,158.613281 356.614868,162.203033 
	C353.506409,154.608154 351.019287,147.653809 347.831573,141.036957 
	C345.526794,136.252884 345.511932,132.672302 349.711578,128.890244 
	C353.879852,125.136421 356.175598,119.400711 363.436707,119.610878 
	C368.407166,119.754745 371.853119,121.298515 374.415802,125.295204 
	C377.133026,129.532898 377.449402,134.138718 374.823944,138.282761 
	C371.639587,143.309052 367.748932,147.887878 363.971252,152.961197 
z"/>
<path fill="#131313" opacity="1.000000" stroke="none" 
	d="
M378.411926,194.602997 
	C377.705383,196.734528 376.989471,198.473404 375.638428,201.755020 
	C372.082153,194.553452 369.216797,188.750931 366.063477,182.365326 
	C375.121399,182.631424 378.433655,186.207764 378.411926,194.602997 
z"/>
</svg>