<svg version="1.1" id="Layer_1" xmlns="http://www.w3.org/2000/svg" xmlns:xlink="http://www.w3.org/1999/xlink" x="0px" y="0px"
	 width="100%" viewBox="0 0 640 640" enable-background="new 0 0 640 640" xml:space="preserve">
<path fill="#1C1C1C" opacity="1.000000" stroke="none" 
	d="
M440.000000,641.000000 
	C293.333374,641.000000 147.166718,641.000000 1.000059,641.000000 
	C1.000039,427.666718 1.000039,214.333466 1.000020,1.000145 
	C214.333237,1.000097 427.666473,1.000097 640.999756,1.000048 
	C640.999878,214.333191 640.999878,427.666382 640.999939,640.999756 
	C574.166687,641.000000 507.333344,641.000000 440.000000,641.000000 
M351.781738,268.870026 
	C358.069427,274.615173 358.308502,282.404663 358.859589,290.048248 
	C360.575958,313.854950 363.953766,337.373627 370.655609,360.345703 
	C371.811218,364.306702 374.078430,366.571045 378.272003,365.470398 
	C382.152313,364.451965 383.514771,361.581268 382.354431,357.727692 
	C374.812744,332.681610 372.476349,306.816925 369.920410,280.952393 
	C368.818146,269.798187 363.757935,260.675507 353.132080,255.424469 
	C351.858521,254.795105 350.441559,253.338776 350.139313,252.024673 
	C342.753204,219.910583 335.352600,187.797928 328.337799,155.601547 
	C326.304169,146.267761 326.676758,136.694382 330.019257,127.592430 
	C331.119415,124.596664 333.432617,122.046387 335.191132,119.292397 
	C335.704315,119.480965 336.217468,119.669525 336.730652,119.858086 
	C337.471252,122.001762 338.269196,124.127586 338.942688,126.292137 
	C342.253021,136.931381 344.687622,147.932953 348.963013,158.166733 
	C369.033966,206.209030 389.392548,254.134613 410.115601,301.899139 
	C417.624786,319.207092 420.319153,336.921906 418.518585,355.516418 
	C417.410645,366.958160 416.220337,378.392883 415.235535,389.845276 
	C413.892944,405.458191 418.520691,418.719635 430.891968,428.907654 
	C435.904236,433.035370 440.721008,437.400574 445.623291,441.661621 
	C454.925598,449.747131 464.227173,457.833527 473.525085,465.924103 
	C475.998322,468.076202 479.015259,469.465424 481.501068,466.874695 
	C483.053375,465.256897 483.732788,462.261627 483.720245,459.890198 
	C483.713074,458.526550 481.678925,457.019379 480.327057,455.840820 
	C466.516296,443.800476 452.763184,431.690247 438.774963,419.858490 
	C430.027344,412.459442 426.380524,403.204315 427.294006,391.993896 
	C427.983978,383.526306 428.656189,375.050323 429.658600,366.616425 
	C432.410461,343.463593 431.569733,320.896545 421.937286,299.031403 
	C407.791412,266.920959 394.159576,234.581299 380.569458,202.229752 
	C371.941345,181.690445 363.596558,161.026154 355.527374,140.261444 
	C352.888092,133.469711 351.593994,126.162689 349.541931,119.133011 
	C347.897583,113.500107 344.539978,109.249336 338.556030,107.998688 
	C332.315857,106.694496 327.594147,109.595886 323.738617,114.252678 
	C322.840057,115.337997 321.951324,116.431473 320.854492,117.769562 
	C316.602875,111.249611 311.712860,106.288956 303.553131,107.982719 
	C295.369812,109.681366 293.264221,116.330696 291.361115,123.375740 
	C288.674316,133.322083 286.203705,143.444901 282.248749,152.910721 
	C262.115173,201.098770 241.787857,249.210052 220.983917,297.111786 
	C212.515076,316.611542 209.349350,336.525635 211.698685,357.530701 
	C212.939011,368.620178 213.821091,379.750488 214.803848,390.867767 
	C215.802292,402.162994 212.789398,411.761627 203.767075,419.376465 
	C189.641296,431.298676 175.823334,443.585968 161.899658,455.746918 
	C157.515274,459.576263 156.697372,462.858093 159.221603,465.873657 
	C161.823273,468.981689 165.186050,468.762787 169.557770,464.983337 
	C183.166656,453.218231 196.479080,441.094330 210.385284,429.693604 
	C223.640121,418.826904 228.360657,405.050018 226.739532,388.506256 
	C225.618515,377.066223 224.481049,365.627258 223.460892,354.178040 
	C222.022079,338.029968 223.404404,322.268494 229.873535,307.163605 
	C243.428177,275.514526 257.119171,243.920883 270.321411,212.124771 
	C281.215942,185.886566 294.267975,160.478714 301.439819,132.772461 
	C302.575226,128.386307 303.939209,124.059334 305.197510,119.704994 
	C305.876526,119.540154 306.555542,119.375313 307.234558,119.210480 
	C309.149353,122.666878 312.310883,125.978798 312.731506,129.608368 
	C313.755463,138.444138 315.198212,147.769989 313.471100,156.290070 
	C306.992645,188.248901 299.333527,219.968979 292.007629,251.753342 
	C291.691986,253.122726 290.564880,254.826950 289.357269,255.387741 
	C277.964966,260.677734 273.272614,270.218597 271.952789,282.025208 
	C270.324890,296.587769 269.134613,311.218140 266.905396,325.688263 
	C265.263733,336.344452 262.354675,346.813812 259.813538,357.318817 
	C258.804901,361.488464 260.039612,364.434021 264.022644,365.531708 
	C267.919342,366.605591 270.306915,364.328339 271.412231,360.643463 
	C271.651031,359.847321 271.798920,359.024170 272.030670,358.225616 
	C279.174255,333.608246 281.678741,308.274292 284.101135,282.887726 
	C284.528381,278.409912 286.781097,273.501129 289.656494,269.992523 
	C295.064362,263.393829 303.245972,263.754791 309.365265,269.765228 
	C313.883270,274.202850 314.965576,279.809540 314.970642,285.788635 
	C314.987427,305.619019 315.093414,325.450348 314.940918,345.279541 
	C314.798767,363.766083 315.259552,382.318481 313.850159,400.718994 
	C311.945099,425.590515 302.457703,447.433716 283.524200,464.518036 
	C271.651917,475.230743 259.857239,486.029388 248.021851,496.783020 
	C238.405533,505.520508 228.752228,514.217529 219.174026,522.996582 
	C215.602158,526.270447 215.178574,529.822937 218.054764,532.543884 
	C221.186081,535.506042 224.358841,534.887939 227.322571,532.092224 
	C227.807358,531.634888 228.309525,531.196045 228.801910,530.746826 
	C249.228134,512.110474 269.531158,493.336548 290.123749,474.885864 
	C303.711731,462.711182 313.491760,448.149994 319.654968,431.058533 
	C320.009247,430.076141 320.513458,429.147827 321.355042,427.300629 
	C327.918427,449.159424 340.722992,465.506256 357.073792,479.561523 
	C369.068756,489.872498 380.527374,500.807922 392.211151,511.480255 
	C399.836731,518.445679 407.422485,525.454712 415.057098,532.410156 
	C417.944305,535.040527 421.157196,535.386963 423.924286,532.513977 
	C426.734558,529.596130 425.951843,526.436218 423.404938,523.616699 
	C422.736755,522.876953 421.979156,522.215393 421.239838,521.542969 
	C400.415771,502.603271 379.549316,483.709991 358.773773,464.717224 
	C339.194122,446.817810 329.803711,424.143799 328.443695,397.394623 
	C328.615662,395.430756 328.935913,393.467010 328.937561,391.502991 
	C328.967804,355.630127 328.961060,319.757202 328.957367,283.884308 
	C328.957092,281.174255 328.920258,278.464203 328.960541,275.110657 
	C329.077606,274.929779 329.194672,274.748932 330.092041,274.705231 
	C334.659668,272.040253 339.227295,269.375275 343.135956,267.094757 
	C345.304321,269.760590 346.553253,271.296021 347.802155,272.831482 
	C348.919189,271.398010 350.036255,269.964569 351.781738,268.870026 
z"/>
<path fill="#F8F8F8" opacity="1.000000" stroke="none" 
	d="
M327.901794,398.031403 
	C329.803711,424.143799 339.194122,446.817810 358.773773,464.717224 
	C379.549316,483.709991 400.415771,502.603271 421.239838,521.542969 
	C421.979156,522.215393 422.736755,522.876953 423.404938,523.616699 
	C425.951843,526.436218 426.734558,529.596130 423.924286,532.513977 
	C421.157196,535.386963 417.944305,535.040527 415.057098,532.410156 
	C407.422485,525.454712 399.836731,518.445679 392.211151,511.480255 
	C380.527374,500.807922 369.068756,489.872498 357.073792,479.561523 
	C340.722992,465.506256 327.918427,449.159424 321.355042,427.300629 
	C320.513458,429.147827 320.009247,430.076141 319.654968,431.058533 
	C313.491760,448.149994 303.711731,462.711182 290.123749,474.885864 
	C269.531158,493.336548 249.228134,512.110474 228.801910,530.746826 
	C228.309525,531.196045 227.807358,531.634888 227.322571,532.092224 
	C224.358841,534.887939 221.186081,535.506042 218.054764,532.543884 
	C215.178574,529.822937 215.602158,526.270447 219.174026,522.996582 
	C228.752228,514.217529 238.405533,505.520508 248.021851,496.783020 
	C259.857239,486.029388 271.651917,475.230743 283.524200,464.518036 
	C302.457703,447.433716 311.945099,425.590515 313.850159,400.718994 
	C315.259552,382.318481 314.798767,363.766083 314.940918,345.279541 
	C315.093414,325.450348 314.987427,305.619019 314.970642,285.788635 
	C314.965576,279.809540 313.883270,274.202850 309.365265,269.765228 
	C303.245972,263.754791 295.064362,263.393829 289.656494,269.992523 
	C286.781097,273.501129 284.528381,278.409912 284.101135,282.887726 
	C281.678741,308.274292 279.174255,333.608246 272.030670,358.225616 
	C271.798920,359.024170 271.651031,359.847321 271.412231,360.643463 
	C270.306915,364.328339 267.919342,366.605591 264.022644,365.531708 
	C260.039612,364.434021 258.804901,361.488464 259.813538,357.318817 
	C262.354675,346.813812 265.263733,336.344452 266.905396,325.688263 
	C269.134613,311.218140 270.324890,296.587769 271.952789,282.025208 
	C273.272614,270.218597 277.964966,260.677734 289.357269,255.387741 
	C290.564880,254.826950 291.691986,253.122726 292.007629,251.753342 
	C299.333527,219.968979 306.992645,188.248901 313.471100,156.290070 
	C315.198212,147.769989 313.755463,138.444138 312.731506,129.608368 
	C312.310883,125.978798 309.149353,122.666878 307.234558,119.210480 
	C306.555542,119.375313 305.876526,119.540154 305.197510,119.704994 
	C303.939209,124.059334 302.575226,128.386307 301.439819,132.772461 
	C294.267975,160.478714 281.215942,185.886566 270.321411,212.124771 
	C257.119171,243.920883 243.428177,275.514526 229.873535,307.163605 
	C223.404404,322.268494 222.022079,338.029968 223.460892,354.178040 
	C224.481049,365.627258 225.618515,377.066223 226.739532,388.506256 
	C228.360657,405.050018 223.640121,418.826904 210.385284,429.693604 
	C196.479080,441.094330 183.166656,453.218231 169.557770,464.983337 
	C165.186050,468.762787 161.823273,468.981689 159.221603,465.873657 
	C156.697372,462.858093 157.515274,459.576263 161.899658,455.746918 
	C175.823334,443.585968 189.641296,431.298676 203.767075,419.376465 
	C212.789398,411.761627 215.802292,402.162994 214.803848,390.867767 
	C213.821091,379.750488 212.939011,368.620178 211.698685,357.530701 
	C209.349350,336.525635 212.515076,316.611542 220.983917,297.111786 
	C241.787857,249.210052 262.115173,201.098770 282.248749,152.910721 
	C286.203705,143.444901 288.674316,133.322083 291.361115,123.375740 
	C293.264221,116.330696 295.369812,109.681366 303.553131,107.982719 
	C311.712860,106.288956 316.602875,111.249611 320.854492,117.769562 
	C321.951324,116.431473 322.840057,115.337997 323.738617,114.252678 
	C327.594147,109.595886 332.315857,106.694496 338.556030,107.998688 
	C344.539978,109.249336 347.897583,113.500107 349.541931,119.133011 
	C351.593994,126.162689 352.888092,133.469711 355.527374,140.261444 
	C363.596558,161.026154 371.941345,181.690445 380.569458,202.229752 
	C394.159576,234.581299 407.791412,266.920959 421.937286,299.031403 
	C431.569733,320.896545 432.410461,343.463593 429.658600,366.616425 
	C428.656189,375.050323 427.983978,383.526306 427.294006,391.993896 
	C426.380524,403.204315 430.027344,412.459442 438.774963,419.858490 
	C452.763184,431.690247 466.516296,443.800476 480.327057,455.840820 
	C481.678925,457.019379 483.713074,458.526550 483.720245,459.890198 
	C483.732788,462.261627 483.053375,465.256897 481.501068,466.874695 
	C479.015259,469.465424 475.998322,468.076202 473.525085,465.924103 
	C464.227173,457.833527 454.925598,449.747131 445.623291,441.661621 
	C440.721008,437.400574 435.904236,433.035370 430.891968,428.907654 
	C418.520691,418.719635 413.892944,405.458191 415.235535,389.845276 
	C416.220337,378.392883 417.410645,366.958160 418.518585,355.516418 
	C420.319153,336.921906 417.624786,319.207092 410.115601,301.899139 
	C389.392548,254.134613 369.033966,206.209030 348.963013,158.166733 
	C344.687622,147.932953 342.253021,136.931381 338.942688,126.292137 
	C338.269196,124.127586 337.471252,122.001762 336.730652,119.858086 
	C336.217468,119.669525 335.704315,119.480965 335.191132,119.292397 
	C333.432617,122.046387 331.119415,124.596664 330.019257,127.592430 
	C326.676758,136.694382 326.304169,146.267761 328.337799,155.601547 
	C335.352600,187.797928 342.753204,219.910583 350.139313,252.024673 
	C350.441559,253.338776 351.858521,254.795105 353.132080,255.424469 
	C363.757935,260.675507 368.818146,269.798187 369.920410,280.952393 
	C372.476349,306.816925 374.812744,332.681610 382.354431,357.727692 
	C383.514771,361.581268 382.152313,364.451965 378.272003,365.470398 
	C374.078430,366.571045 371.811218,364.306702 370.655609,360.345703 
	C363.953766,337.373627 360.575958,313.854950 358.859589,290.048248 
	C358.308502,282.404663 358.069427,274.615173 351.264343,268.428101 
	C341.873566,262.746338 334.430023,265.031952 329.311707,274.568085 
	C329.194672,274.748932 329.077606,274.929779 328.694702,275.675659 
	C327.975647,279.838501 327.140839,283.434998 327.128754,287.034302 
	C327.018738,319.743927 327.020874,352.454102 327.082001,385.163971 
	C327.090027,389.453613 327.615814,393.742279 327.901794,398.031403 
M314.801605,206.269363 
	C311.235229,221.943710 307.668823,237.618073 304.358795,252.165649 
	C310.527100,256.341949 316.049408,260.080841 320.983856,263.421753 
	C326.322937,259.890442 331.887299,256.210083 337.797272,252.301163 
	C332.486908,229.080414 326.992493,205.055008 321.498108,181.029617 
	C321.202972,181.013367 320.907837,180.997131 320.612701,180.980881 
	C318.729553,189.137344 316.846436,197.293808 314.801605,206.269363 
z"/>
<path fill="#292929" opacity="1.000000" stroke="none" 
	d="
M328.172729,397.713013 
	C327.615814,393.742279 327.090027,389.453613 327.082001,385.163971 
	C327.020874,352.454102 327.018738,319.743927 327.128754,287.034302 
	C327.140839,283.434998 327.975647,279.838501 328.664612,275.997437 
	C328.920258,278.464203 328.957092,281.174255 328.957367,283.884308 
	C328.961060,319.757202 328.967804,355.630127 328.937561,391.502991 
	C328.935913,393.467010 328.615662,395.430756 328.172729,397.713013 
z"/>
<path fill="#292929" opacity="1.000000" stroke="none" 
	d="
M329.701874,274.636658 
	C334.430023,265.031952 341.873566,262.746338 350.950134,268.258667 
	C350.036255,269.964569 348.919189,271.398010 347.802155,272.831482 
	C346.553253,271.296021 345.304321,269.760590 343.135956,267.094757 
	C339.227295,269.375275 334.659668,272.040253 329.701874,274.636658 
z"/>
<path fill="#1E1E1E" opacity="1.000000" stroke="none" 
	d="
M314.882446,205.859818 
	C316.846436,197.293808 318.729553,189.137344 320.612701,180.980881 
	C320.907837,180.997131 321.202972,181.013367 321.498108,181.029617 
	C326.992493,205.055008 332.486908,229.080414 337.797272,252.301163 
	C331.887299,256.210083 326.322937,259.890442 320.983856,263.421753 
	C316.049408,260.080841 310.527100,256.341949 304.358795,252.165649 
	C307.668823,237.618073 311.235229,221.943710 314.882446,205.859818 
z"/>
</svg>